<svg xmlns="http://www.w3.org/2000/svg" enable-background="new 0 0 4680 3120" viewBox="0 0 4680 3120"><path fill="#feeed3" d="M3078.887 2146.394c-390.738 366.271-369.469 359.863-368.368 359.423-4.777 2.602-464.706 251.875-1069.453-.026-256.755-106.953-335.591-231.434-357.106-388.951-2.227-16.259-3.832-32.881-4.958-49.865-13.864-207.99 44.014-471.334-70.124-821.32-56.583-173.53-64.234-310.762-39.483-417.883 4.013-17.411 8.88-34.02 14.563-49.865 90.992-254.852 384.822-310.723 585.342-277.842 289.713 47.496 748.607-370.439 1390.662 47.496 642.042 417.935 318.296 1224.484-81.075 1598.833z"/><path fill="#fcaa23" stroke="#000" stroke-linecap="round" stroke-linejoin="round" stroke-miterlimit="10" stroke-width="4" d="M2563.396 777.907V2116.84H1283.959c-2.227-16.259-3.832-32.881-4.958-49.865-13.864-207.99 44.014-471.334-70.124-821.32-56.583-173.53-64.234-310.762-39.483-417.883 4.013-17.411 8.88-34.02 14.563-49.865h1379.439z"/><path fill="#0b065a" d="M2514.425 827.772v1239.204H1279.001c-13.864-207.99 44.014-471.334-70.124-821.32-56.583-173.53-64.234-310.762-39.483-417.883h1345.031z"/><circle cx="1898.944" cy="1163.939" r="156.727" fill="none" stroke="#fff" stroke-miterlimit="10" stroke-width="4"/><path fill="none" stroke="#fff" stroke-miterlimit="10" stroke-width="4" d="m2021.108 1065.768-122.164 98.171"/><circle cx="1895.234" cy="1190.203" r="13.357" fill="none" stroke="#fff" stroke-miterlimit="10" stroke-width="4" transform="rotate(-45.001 1895.229 1190.23)"/><path fill="none" stroke="#fff" stroke-miterlimit="10" stroke-width="4" d="M1468.686 1229.088v339.576h318.204z"/><path fill="#fff" d="M1423.974 1376.868h-6.848l-14.965 44.027h5.877l4.57-13.851h15.612l4.712 13.851h6.071l-15.029-44.027zm-10.187 25.735 4.31-12.738c.855-2.68 1.567-5.359 2.227-7.974h.129c.647 2.55 1.307 5.165 2.278 8.039l4.311 12.673h-13.255zM1610.786 1606.658v-.117c4.44-1.618 7.133-5.178 7.133-9.243 0-3.314-1.32-5.813-3.508-7.431-2.615-2.136-6.123-3.068-11.547-3.068-3.819 0-7.56.375-9.942.88v41.411c1.812.246 4.686.505 8.44.505 6.874 0 11.612-1.256 14.55-3.935 2.123-2.071 3.56-4.816 3.56-8.44.001-6.239-4.686-9.553-8.686-10.562zm-12.427-15.289c.88-.194 2.317-.388 4.816-.388 5.489 0 9.243 1.942 9.243 6.874 0 4.065-3.379 7.068-9.126 7.068h-4.932v-13.554zm4.557 33.981c-1.929 0-3.495-.065-4.557-.259v-16.052h4.505c5.929 0 10.861 2.369 10.861 8.117 0 6.123-5.178 8.194-10.809 8.194zM1683.59 1404.816c-10.24 0-16.182-6.628-16.182-16.932 0-11.055 6.563-17.36 16.427-17.36 3.508 0 6.434.738 8.505 1.748l1.308-4.44c-1.437-.751-4.751-1.877-9.994-1.877-13.062 0-21.994 8.945-21.994 22.123 0 13.8 8.932 21.36 20.803 21.36 5.126 0 9.126-1.062 11.12-2.058l-1.126-4.311c-2.187 1.061-5.553 1.747-8.867 1.747z"/><path fill="none" stroke="#fff" stroke-miterlimit="10" stroke-width="4" d="M1937.309 1489.167h362.273v362.273h-362.273z"/><path fill="#ea8b00" stroke="#000" stroke-miterlimit="10" stroke-width="4" d="M2881.83 1580.315s146.635 20.935 190.566 8.093l23.153 48.899s-72.427 94.393-132.981 70.646-160.883-49.275-80.738-127.638z"/><path fill="#fcaa23" stroke="#000" stroke-linecap="round" stroke-linejoin="round" stroke-miterlimit="10" stroke-width="4" d="M2690.822 2328.198s-50.416 145.056 6.576 431.802h464.344s40.666-176.17 13.357-392.857c-26.682-211.718-389.884-291.846-484.277-38.945z"/><path fill="#ea8b00" d="M2688.295 2347.255s94.302 25.824 161.728 38.885 150.539 4.749 197.439 40.369 43.337 332.452 43.337 332.452l68.271 1.039s45.712-194.573 5.937-439.163l-302.662-138.027-167.817 139.808-6.233 24.637z"/><path fill="#fff" stroke="#000" stroke-linecap="round" stroke-miterlimit="10" stroke-width="4" d="M2411.944 1821.565s-1.781-24.043-15.435-25.527-36.51-27.309-43.931-40.369c0 0-5.64-1.781-13.654-1.187-8.014.594-37.994-12.17-38.588-22.559-.594-10.389 27.902-6.827 35.62-6.53l-35.629-48.087s-34.127.297-42.735-12.467c0 0-6.827-5.046 4.453-7.124 11.28-2.078 40.963-10.092 48.384-14.248 7.421-4.156 51.055 30.871 64.116 33.839s25.231 6.827 37.401 28.793 43.931 94.096 43.931 94.096-14.843 34.727-43.933 21.37zM2934.468 1520.379s3.958 67.678-23.351 83.509-44.327 26.517-44.327 26.517 90.237 55.013 153.165 18.997 62.928-39.973 62.928-39.973-47.889-7.52-50.263-29.683c-2.375-22.163 1.979-87.862 1.979-87.862l-100.131 28.495z"/><path fill="#fcaa23" d="M2936.447 1549.667s55.211 3.859 73.615 0 .297 84.3-30.277 83.113c-30.574-1.187-60.257-31.761-60.257-31.761l-13.654 9.499s-6.207 65.303 63.535 43.634c69.742-21.669 86.365-48.681 86.365-48.681s-24.043-11.131-25.824-25.156c-1.781-14.025.891-76.657.891-76.657l-93.799 29.386-.595 16.623z"/><path fill="#fcaa23" stroke="#000" stroke-linecap="round" stroke-linejoin="round" stroke-miterlimit="10" stroke-width="4" d="M3095.549 1614.673s120.328 54.83 139.918 76.202 23.184 96.257 21.558 171.653c-1.586 73.545 22.262 352.34-81.926 349.668 0 0-9.499 38.588 16.515 149.603 0 0-164.338 30.871-315.722 2.226l-4.874-163.054-34.41 155.313s-107.945-37.229-174.435-24.323c0 0 61.741-120.953 59.366-246.809-2.375-125.857 0-102.11 0-102.11s-36.213 152.572-141.292 150.791-161.774-283.178-161.774-283.178 37.995-26.715 60.257-31.167c0 0 73.911 93.502 105.079 158.508 0 0 118.332-285.052 139.808-316.366 16.326-23.804 128.419-46.957 128.419-46.957l73.724 234.201c.001 0 97.065-50.462 169.789-234.201z"/><path fill="#ea8b00" d="M3027.277 1793.663s-62.335 113.984-13.357 171.866c48.977 57.882 146.041 97.727 146.041 97.727l-3.562-257.441-129.122-12.152zM2710.557 1830.173s-10.389 6.431-14.743 25.429-30.673 224.009-92.414 239.049c-61.741 15.04-115.369-46.504-115.369-46.504s38.984 85.092 95.778 83.311c42.394-1.33 67.678-23.758 93.007-51.853 25.33-28.094 41.952-98.763 41.952-98.763l-8.211-150.669zM2830.542 2010.944l19.366 46.9s64.271-61.741 93.215-35.62c28.944 26.121 86.332 202.577 228.712 231.301 0 0-1.089-18.374-.297-38.954 0 0-116.16-78.957-147.031-146.635 0 0-1.781-3.958 16.623-4.552 18.404-.594-82.915-136.147-82.915-136.147s-135.623 30.277-127.673 83.707z"/><path fill="#fff" stroke="#000" stroke-linecap="round" stroke-miterlimit="10" stroke-width="4" d="M2911.117 1603.888s27.704 53.826 80.541 34.828c38.924-13.995 52.61-30.783 57.118-38.653a5.55 5.55 0 0 1 7.026-2.336l30.99 16.946s-30.334 143.37-101.323 158.212c-70.989 14.842-132.753-60.523-133.433-83.707-.68-23.184 26.23-71.833 26.23-71.833s26.562-19.872 32.851-13.457z"/><path fill="#fcaa23" stroke="#000" stroke-linecap="round" stroke-linejoin="round" stroke-miterlimit="10" stroke-width="4" d="M3072.396 1588.407s-7.718 82.684-27.902 123.377c-20.185 40.693 51.649 38.318 51.055 36.537-.594-1.781 33.245-122.888 33.245-122.888s-18.997-8.155-56.398-37.026zM2881.83 1580.315s22.559 102.11 16.623 159.102l-59.96 9.702s7.398-64.913-21.441-125.455c-.001 0 24.408-13.072 64.778-43.349z"/><path fill="#fff" stroke="#000" stroke-linecap="round" stroke-miterlimit="10" stroke-width="4" d="M2943.844 1756.229s-50.141-105.045-183.122-11.246l-4.749 58.773c0-.001 163.804 17.149 187.871-47.527z"/><path fill="none" stroke="#000" stroke-linecap="round" stroke-linejoin="round" stroke-miterlimit="10" stroke-width="4" d="M2890.141 1931.987s13.103 82.575-19.122 268.985"/><path fill="#fff" stroke="#000" stroke-linecap="round" stroke-miterlimit="10" stroke-width="4" d="M2943.844 1756.229s-18.521-62.715 132.192-108.517l52.758 38.325c0-.001-80.295 99.816-184.95 70.192z"/><path fill="#fcaa23" stroke="#000" stroke-linecap="round" stroke-linejoin="round" stroke-miterlimit="10" stroke-width="4" d="M3175.1 2212.196s-62.335 9.795-147.822-144.26c0 0 66.787-3.562 85.488-62.335l47.196 38.292s-2.948-103.274 2.672-158.902"/><path fill="#4052f2" stroke="#000" stroke-linecap="round" stroke-miterlimit="10" stroke-width="4" d="M2925.597 1760.854s-75.718-69.895-175.454 42.901l60.554 227.782s60.554-79.959 163.851-68.68l-48.951-202.003zM2963.581 1751.251s76.65-106.351 163.919-65.215l64.115 232.89s-91.63 4.749-174.537 54.617l-53.497-222.292z"/><path fill="#4052f2" stroke="#000" stroke-linecap="round" stroke-miterlimit="10" stroke-width="4" d="M2946.318 1753.417h41.693v196.047h-41.693z" transform="rotate(-13.32 2967.18 1851.766)"/><path fill="#fcaa23" stroke="#000" stroke-linecap="round" stroke-linejoin="round" stroke-miterlimit="10" stroke-width="4" d="M3159.961 2043.892s42.744 21.372 56.101 73.021"/><path fill="#fff" stroke="#000" stroke-linecap="round" stroke-miterlimit="10" stroke-width="4" d="m3110.184 2012.641-13.448-16.538c-5.937 26.715-75.395 52.553-75.395 52.553l13.789 18.316s56.741-7.516 75.054-54.331z"/><path fill="#fff" stroke="#000" stroke-linecap="round" stroke-miterlimit="10" stroke-width="4" d="M3033 2043.892s-108.427-75.099-129.799-146.932c0 0-2.968-13.848 9.499-11.97 0 0-14.842-28.993 2.968-28.993 0 0 10.677-2.091 42.146 46.447 0 0 33.25 42.602 49.872 26.573 16.623-16.029 15.04-85.29 25.726-85.29s13.853 12.312 11.873 48.285c-2.815 51.16-1.762 58.345 14.05 56.002 16.029-2.375 41.853-11.42 41.853-11.42l-12.376 72.975c0 .002-21 23.934-55.812 34.323z"/><path fill="#fcaa23" stroke="#000" stroke-linecap="round" stroke-linejoin="round" stroke-miterlimit="10" stroke-width="4" d="M2583.81 1977.996s21.372 40.072 29.386 65.897"/><path fill="none" stroke="#000" stroke-linecap="round" stroke-linejoin="round" stroke-miterlimit="10" stroke-width="4" d="M2721.54 1983.042s-3.265-34.432-8.608-78.957c-5.343-44.525 0-73.911 0-73.911"/><path fill="#fff" stroke="#000" stroke-linecap="round" stroke-miterlimit="10" stroke-width="4" d="m2423.521 1853.029-17.216-34.729s40.369-11.28 51.055-28.199l24.34 41.557-58.179 21.371zM2335.955 1725.391s24.043-1.484 32.652 6.827 21.966 12.17 21.966 12.17"/><path fill="#feeed3" stroke="#000" stroke-miterlimit="10" stroke-width="4" d="m1975.551 1256.038 352.876 466.662s16.6-.788 24.032.993l-367.683-477.352c-1.407-1.827-3.49-3.091-5.791-3.251-2.305-.161-4.832.663-5.554 4.694-.52 2.908.338 5.897 2.12 8.254z"/><path fill="#fff" stroke="#000" stroke-linecap="round" stroke-miterlimit="10" stroke-width="4" d="M2912.7 1884.99s28.496 47.788 45.514 61.244M2890.141 1239.774s-33.839 44.525-32.948 94.393c.891 49.868-25.859 48.977-.017 111.312 25.842 62.335 53.447 112.203 124.687 86.378 71.24-25.824 93.502-48.977 108.641-104.188 0 0 24.934-1.781 32.948-25.824 8.014-24.043-16.029-47.196-29.386-35.62-13.357 11.577-32.948-112.203-74.802-133.574-41.855-21.373-111.313-38.292-129.123 7.123z"/><path fill="#fcaa23" d="M2860.349 1319.521s30.386-48.876 54.726-58.968c24.34-10.092 28.048-25.528 28.048-25.528s43.877 76.488 112.65 113.984c0 0 8.905.594 6.53 18.997-2.375 18.404 6.994 36.288 5.145 53.43-4.354 40.369-7.52 43.338-42.348 88.654 0 0 29.287-11.478 53.518-49.416 11.764-18.419 55.955-34.898 54.529-50.716-7.937-87.999-138.072-197.201-163.739-195.445-39.492 2.702-101.661 51.572-107.688 96.264l-1.371 8.744z"/><path fill="#0b065a" d="M3165.008 1385.222c-17.81-46.306-44.525-17.216-44.525-17.216s15.736-16.806 15.539-47.504c-.074-11.531-2.395-25.022-8.645-40.321-51.754-203.938-165.996-100.961-165.996-100.961 41.556-23.747 69.921-19.591 69.921-19.591 49.282 9.437 77.444 67.464 91.892 111.142-27.396-59.077-74.177-139.141-161.813-91.551 0 0-13.061-26.715-39.182-9.499-10.625 7.003-31.627 23.27-49.377 43.935l.004-.006s-94.887 102.904-15.633 120.516l-.128-9.301s-46.439-2.978-8.615-73.168c-8.819 21.609-8.868 44.563 9.74 65.344 0 0 24.235-45.804 51.543-63.02 27.309-17.216 35.62-29.386 35.62-29.386s60.752 97.856 120.118 114.478c0 0 5.541 6.333 3.562 18.602-1.979 12.269-3.958 51.451 9.498 36.016 13.457-15.435 9.768-23.224 17.351-28.828 7.583-5.605 23.231 4.479 28.666 21.601 0 0 .487 35.13-34.044 41.165 0 0-4.671 14.063-11.884 33.005 0 0 1.099 22.107 39.885 20.92a46.103 46.103 0 0 0 6.689-.707c-15.41 4.764-36.467 6.886-49.532-9.932l-5.64 7.942s34.001 28.775 74.586-6.329l-.011.007c22.734-16.405 33.776-52.603 20.411-87.353z"/><path fill="#fcaa23" stroke="#000" stroke-linecap="round" stroke-linejoin="round" stroke-miterlimit="10" stroke-width="4" d="M1515.214 2760h800.26M2358.22 2760h920.177M3310.455 2760h141.292"/><path fill="none" stroke="#000" stroke-linecap="round" stroke-miterlimit="10" stroke-width="4" d="M2810.964 1374.854s36.12-26.494 95.778 1.979c6.893 3.29 4.968 11.021-1.662 19.637-21.609 28.086-63.481 29.046-87.593 3.077-8.369-9.014-12.995-18.22-6.523-24.693zM2931.196 1379.343s36.12-26.494 95.778 1.979c6.893 3.29 4.968 11.021-1.662 19.637-21.609 28.086-63.481 29.046-87.593 3.077-8.369-9.014-12.996-18.221-6.523-24.693zM2913.601 1392.056s-6.467 26.609-12.404 41.252c0 0-8.286 13.061 21.002 12.269"/><path fill="#fff" stroke="#000" stroke-linecap="round" stroke-miterlimit="10" stroke-width="4" d="M2902.565 1472.306s31.296 18.287 57.66-6.068"/><ellipse cx="2872.826" cy="1383.436" rx="6.036" ry="8.509"/><ellipse cx="2974.837" cy="1387.954" rx="6.036" ry="8.509"/><path fill="none" stroke="#000" stroke-linecap="round" stroke-miterlimit="10" stroke-width="4" d="M2857.064 1342.755s17.444-17.494 38.618-6.214M2961.37 1339.758s21.76-11.697 38.764 5.228M2906.871 1394.534s11.617-12.568 24.232.93"/><path fill="#fff" d="M1617.918 2047.751h112.796v19.22h-112.796z"/><path fill="none" stroke="#fff" stroke-linecap="round" stroke-miterlimit="10" stroke-width="2" d="M2956.631 1204.748s67.084-24.934 99.142 40.369 32.058 90.703 32.058 90.703"/><path fill="none" stroke="#fff" stroke-linecap="round" stroke-miterlimit="10" stroke-width="2" d="M2951.882 1216.423s72.427 32.849 108.839 95.382M2987.106 1180.803s46.306-11.082 66.095 22.559M2939.613 1208.508s-34.887-7.124-82.549 71.635M2939.613 1191.209s-7.7-19.508-32.742 6.613M3091.591 1434.892s1.051 51.613 60.288 31.347M3114.942 1428.559s-1.187 24.585 31.662 24.364"/><path fill="#0b065a" d="m2857.192 1334.167-.128-9.301"/><path fill="none" stroke="#000" stroke-linecap="round" stroke-linejoin="round" stroke-miterlimit="10" stroke-width="3" d="M2956.631 2142.738s-3.562 175.131 180.474 169.788M2963.581 2275.125s19.172 43.338 93.38 50.462M1439.004 763.358h238.651M1689.751 763.358h117.546M1854.79 763.358h400.754M2581.483 1704.494v-165.676M2581.483 1421.161v-81.603M2581.483 1306.587v-278.211"/></svg>
